<svg width="24" height="24" viewBox="0 0 24 24" fill="none" xmlns="http://www.w3.org/2000/svg">
<path d="M12 2.5C12.3978 2.5 12.7794 2.65804 13.0607 2.93934C13.342 3.22064 13.5 3.60218 13.5 4V9.402L18.178 6.7C18.5223 6.50422 18.9301 6.45259 19.3124 6.55638C19.6947 6.66016 20.0204 6.91093 20.2184 7.25396C20.4165 7.59699 20.4708 8.00443 20.3696 8.38738C20.2683 8.77032 20.0197 9.09767 19.678 9.298L15 12L19.678 14.701C20.0197 14.9013 20.2683 15.2287 20.3696 15.6116C20.4708 15.9946 20.4165 16.402 20.2184 16.745C20.0204 17.0881 19.6947 17.3388 19.3124 17.4426C18.9301 17.5464 18.5223 17.4948 18.178 17.299L13.5 14.599V20C13.5 20.3978 13.342 20.7794 13.0607 21.0607C12.7794 21.342 12.3978 21.5 12 21.5C11.6022 21.5 11.2206 21.342 10.9393 21.0607C10.658 20.7794 10.5 20.3978 10.5 20V14.598L5.822 17.3C5.65135 17.4 5.46259 17.4653 5.26659 17.4921C5.07059 17.5189 4.87123 17.5067 4.67998 17.4561C4.48873 17.4056 4.30937 17.3177 4.15223 17.1975C3.99509 17.0774 3.86327 16.9273 3.76436 16.756C3.66544 16.5847 3.6014 16.3955 3.5759 16.1993C3.5504 16.0031 3.56396 15.8039 3.61579 15.613C3.66762 15.4221 3.7567 15.2433 3.8779 15.0869C3.9991 14.9306 4.15003 14.7998 4.322 14.702L9 12L4.322 9.299C3.98029 9.09867 3.73169 8.77132 3.63045 8.38838C3.5292 8.00543 3.58354 7.59799 3.78159 7.25496C3.97965 6.91193 4.30534 6.66116 4.68761 6.55738C5.06987 6.45359 5.47766 6.50523 5.822 6.701L10.5 9.401V4C10.5 3.60218 10.658 3.22064 10.9393 2.93934C11.2206 2.65804 11.6022 2.5 12 2.5Z" fill="black"/>
</svg>
