<svg width="1024" height="1024" xmlns="http://www.w3.org/2000/svg"><path d="M351.108 1003.31h.031l.031.01c61.957 11.14 110.52 16.85 158.324 17.14v.04l2.511-.01c48.615-.1 97.787-5.81 160.825-17.15h.031l.031-.01c74.557-15.373 137.132-40.237 190.619-75.618l.015-.01.015-.01c43.458-29.662 72.771-55.636 93.371-86.571 20.595-30.928 32.346-66.614 41.036-115.47 3.032-11.54 5.232-31.501 6.762-57.385 1.53-26.029 2.39-58.244 2.68-94.317.58-72.151-1.11-159.823-4.22-244.475-3.11-84.65-7.649-166.315-12.766-226.45-2.558-30.057-5.265-54.788-8.021-71.837-1.375-8.503-2.778-15.203-4.213-19.721-.708-2.23-1.481-4.116-2.366-5.44-.697-1.04-2.138-2.678-4.245-2.399-4.952-.427-11.522.494-19.455 2.524-8.187 2.095-18.035 5.427-29.412 9.918-22.756 8.983-51.798 22.672-86.187 40.594-68.62 35.761-158.702 88.464-262.957 154.52-47.868-6.408-75.213-6.427-123.096-.024-104.254-66.057-194.336-118.76-262.957-154.52-34.389-17.922-63.431-31.612-86.187-40.595-11.377-4.491-21.225-7.823-29.412-9.918-7.933-2.03-14.502-2.95-19.455-2.523-2.107-.28-3.549 1.358-4.245 2.398-.886 1.324-1.658 3.21-2.366 5.44-1.434 4.518-2.838 11.218-4.212 19.722-2.757 17.048-5.464 41.779-8.022 71.836-5.117 60.136-9.653 141.801-12.764 226.451-3.11 84.652-4.799 172.323-4.219 244.474.29 36.074 1.147 68.289 2.679 94.317 1.524 25.885 3.723 45.845 6.76 57.385 8.69 48.857 20.441 84.542 41.036 115.47 20.6 30.935 49.914 56.909 93.371 86.572l.015.01.015.01c53.487 35.38 116.062 60.244 190.619 75.622z" fill="#fff" stroke="#000" stroke-width="5"/><path d="M511.513 737.065c6.664.781 13.506 2.281 19.515 4.262 15.776 5.116 12.007 12.432 3.366 18.117-3.153 2.075-6.957 3.948-10.721 5.801-6.848 3.372-13.565 6.679-15.998 11.022-1.925 3.486-.921 19.803-.354 29.032a324 324 0 01.266 4.615c.798 15.711 18.559 26.743 35.221 27.032 5.101.061 8.164-3.486 11.085-6.868 2.639-3.056 5.161-5.977 8.964-5.977 3.808 0 4.879 4.922 2.261 10.444-1.666 3.482-6.544 7.924-11.304 10.325-7.496 3.721-15.231 3.541-24.809-.661-7.258-3.121-14.338-8.283-21.418-15.486-4.968-6.676-7.741-6.736-12.71.001-7.08 7.203-14.16 12.365-21.418 15.487-9.579 4.201-17.313 4.381-24.81.66-4.759-2.401-9.638-6.843-11.303-10.324-2.618-5.523-1.547-10.445 2.26-10.445 3.804 0 6.326 2.921 8.965 5.977 2.92 3.382 5.983 6.929 11.085 6.869 16.661-.29 34.422-11.321 35.221-27.033.05-1.124.149-2.72.265-4.615.568-9.229 1.572-25.545-.354-29.031-2.433-4.344-9.149-7.651-15.997-11.022-3.764-1.854-7.568-3.727-10.722-5.802-8.64-5.685-12.409-13.001 3.367-18.117 6.009-1.98 12.851-3.481 19.514-4.261a99.107 99.107 0 0120.563-.002zM589.296 643.661c0 96.739 74.878 175.161 167.244 175.161S923.784 740.4 923.784 643.661 848.906 468.5 756.54 468.5s-167.244 78.422-167.244 175.161z"/><path d="M781.775 578.89c-26.354 11.647-76.786 36.983-93.436 47.19-35.818 21.613-79.062 52.832-79.062 57.035 0 2.281 10.662 11.287 20.125 16.931 31.864 19.091 72.712 21.133 106.373 5.403 34.859-16.45 56.182-43.707 66.004-84.413 2.276-9.365 3.115-40.345 1.198-46.949-1.078-4.082-.599-4.202-21.202 4.803z" fill="#fff"/><path d="M416.115 643.661c0 96.739-74.878 175.161-167.244 175.161S81.627 740.4 81.627 643.661 156.505 468.5 248.871 468.5s167.244 78.422 167.244 175.161z"/><path d="M223.636 578.89c26.354 11.647 76.785 36.983 93.436 47.19 35.817 21.613 79.061 52.832 79.061 57.035 0 2.281-10.661 11.287-20.124 16.931-31.864 19.091-72.713 21.133-106.374 5.403-34.858-16.45-56.181-43.707-66.004-84.413-2.276-9.365-3.114-40.345-1.198-46.949 1.079-4.082.599-4.202 21.203 4.803z" fill="#fff"/><path d="M55.298 27.55c-.785 1.33-2.838 12.273-3.503 18.62-1.087 9.855-1.147 48.125-.06 58.645 3.745 36.093 12.2 81.557 20.657 110.637.966 3.325 2.718 9.734 3.926 14.208 8.577 32.405 25.308 76.237 40.831 107.009 5.134 10.157 12.321 22.974 12.925 22.974.604 0 5.436-3.325 15.1-10.338 35.214-25.513 57.562-40.144 88.789-58.1 20.899-12.031 45.119-23.578 75.199-35.851 32.133-13.119 75.379-25.755 104.613-30.592 9.906-1.632 10.027-.906-1.57-9.189-4.349-3.083-14.013-10.096-21.503-15.598-23.798-17.412-42.824-30.289-67.769-45.767-9.785-6.045-43.247-25.15-60.884-34.702-16.066-8.766-68.735-35.186-84.258-42.32-6.946-3.205-18.664-8.585-25.973-11.971-14.194-6.53-23.677-10.64-36.24-15.719-4.288-1.753-11.657-4.776-16.308-6.771-10.872-4.656-29.959-11.97-36.421-14.026-5.134-1.633-7.128-1.935-7.55-1.15zM968.915 27.55c.785 1.33 2.839 12.273 3.503 18.62 1.087 9.855 1.148 48.125.06 58.645-3.744 36.093-12.2 81.557-20.657 110.637-.966 3.325-2.718 9.734-3.926 14.208-8.576 32.405-25.307 76.237-40.83 107.009-5.134 10.157-12.322 22.974-12.926 22.974-.604 0-5.436-3.325-15.1-10.338-35.213-25.513-57.562-40.144-88.789-58.1-20.898-12.031-45.119-23.578-75.198-35.851-32.133-13.119-75.38-25.755-104.614-30.592-9.905-1.632-10.026-.906 1.571-9.189 4.348-3.083 14.013-10.096 21.502-15.598 23.798-17.412 42.824-30.289 67.769-45.766 9.785-6.046 43.247-25.151 60.884-34.703 16.067-8.766 68.736-35.186 84.259-42.32 6.946-3.205 18.663-8.585 25.972-11.971 14.194-6.53 23.677-10.64 36.24-15.719 4.289-1.753 11.657-4.776 16.308-6.771 10.872-4.656 29.959-11.97 36.422-14.026 5.134-1.633 7.127-1.935 7.55-1.15z"/></svg>