<svg width="1024" height="1024" xmlns="http://www.w3.org/2000/svg"><path fill="#fff" d="M0 0h1024v1024H0z"/><path d="M517.4 600.385c6.734.789 13.648 2.305 19.72 4.307 15.941 5.169 12.133 12.562 3.402 18.307-3.187 2.097-7.031 3.989-10.835 5.862-6.919 3.407-13.706 6.748-16.165 11.138-1.946 3.522-.931 20.011-.358 29.336.118 1.915.217 3.527.269 4.664.807 15.876 18.754 27.023 35.59 27.316 5.155.061 8.251-3.523 11.202-6.941 2.666-3.088 5.215-6.039 9.058-6.039 3.848 0 4.93 4.974 2.285 10.554-1.683 3.518-6.613 8.006-11.423 10.433-7.575 3.76-15.39 3.578-25.069-.668-7.335-3.154-14.489-8.37-21.643-15.649-5.02-6.746-7.822-6.806-12.844.002-7.154 7.278-14.308 12.495-21.643 15.649-9.679 4.245-17.495 4.427-25.07.667-4.809-2.426-9.739-6.915-11.422-10.433-2.646-5.58-1.563-10.554 2.284-10.554 3.844 0 6.392 2.951 9.059 6.04 2.951 3.417 6.046 7.002 11.201 6.94 16.837-.293 34.784-11.44 35.591-27.316.051-1.136.15-2.749.268-4.664.574-9.325 1.588-25.813-.357-29.336-2.459-4.389-9.246-7.731-16.166-11.138-3.803-1.872-7.647-3.765-10.834-5.862-8.731-5.745-12.54-13.137 3.402-18.307 6.072-2.002 12.986-3.518 19.719-4.307 6.758-.72 14.027-.721 20.779-.001zM83 506c0 97.754 75.664 177 169 177s169-79.246 169-177-75.664-177-169-177S83 408.246 83 506z"/><path d="M252 717c-8.033 0-14.24-2.196-18.622-6.588-4.381-4.575-6.572-10.889-6.572-18.941V562.176h-42.994c-6.755 0-11.958-1.738-15.609-5.215-3.469-3.66-5.203-8.785-5.203-15.373 0-6.771 1.734-11.895 5.203-15.372 3.651-3.477 8.854-5.216 15.609-5.216h136.376c6.755 0 11.866 1.739 15.335 5.216 3.651 3.477 5.477 8.601 5.477 15.372 0 6.588-1.826 11.713-5.477 15.373-3.469 3.477-8.58 5.215-15.335 5.215h-42.994v129.295c0 8.052-2.1 14.366-6.299 18.941C266.696 714.804 260.398 717 252 717z" fill="#fff"/><path d="M596 506c0 97.754 75.664 177 169 177s169-79.246 169-177-75.664-177-169-177-169 79.246-169 177z"/><path d="M765 717c-8.033 0-14.24-2.196-18.622-6.588-4.381-4.575-6.572-10.889-6.572-18.941V562.176h-42.994c-6.755 0-11.958-1.738-15.609-5.215-3.469-3.66-5.203-8.785-5.203-15.373 0-6.771 1.734-11.895 5.203-15.372 3.651-3.477 8.854-5.216 15.609-5.216h136.376c6.755 0 11.866 1.739 15.335 5.216 3.651 3.477 5.477 8.601 5.477 15.372 0 6.588-1.826 11.713-5.477 15.373-3.469 3.477-8.58 5.215-15.335 5.215h-42.994v129.295c0 8.052-2.1 14.366-6.299 18.941C779.696 714.804 773.398 717 765 717z" fill="#fff"/><path d="M771.5 34L770 293.016M806.74 8L805 267.017M842.692 30l-1.739 259.017M872.846 70l-1.739 259.017M903 30l-1.779 259.017M934 8l-1.5 259.016" stroke="#000" stroke-width="15" stroke-linecap="round"/></svg>