<svg width="1024" height="1024" viewBox="0 0 1024 1024" fill="none" xmlns="http://www.w3.org/2000/svg">
<g clip-path="url(#clip0_113_122)">
<path d="M0 0H1024V1024H0V0Z" fill="white"/>
<path d="M416.952 692.728C411.576 692.728 407.352 691.256 404.28 688.312C401.336 685.368 399.864 681.016 399.864 675.256V668.344H361.272C355.64 668.344 351.224 667.064 348.024 664.504C344.952 661.944 343.416 658.04 343.416 652.792C343.416 649.72 343.992 646.776 345.144 643.96C346.296 641.016 348.344 637.496 351.288 633.4L398.136 565.048C400.696 561.208 403.576 558.392 406.776 556.6C409.976 554.808 413.752 553.912 418.104 553.912C422.968 553.912 426.808 555.384 429.624 558.328C432.44 561.144 433.848 565.496 433.848 571.384V641.656H438.456C443.32 641.656 446.968 642.808 449.4 645.112C451.96 647.416 453.24 650.68 453.24 654.904C453.24 659.256 451.96 662.584 449.4 664.888C446.968 667.192 443.32 668.344 438.456 668.344H433.848V675.256C433.848 680.888 432.376 685.24 429.432 688.312C426.616 691.256 422.456 692.728 416.952 692.728ZM399.864 641.656V596.344H405.24L369.144 649.912V641.656H399.864Z" fill="black"/>
<path d="M511.725 693.112C495.085 693.112 482.285 687.032 473.325 674.872C464.493 662.584 460.077 645.24 460.077 622.84C460.077 607.736 462.061 595.064 466.029 584.824C469.997 574.456 475.821 566.648 483.501 561.4C491.181 556.152 500.589 553.528 511.725 553.528C528.493 553.528 541.293 559.416 550.125 571.192C558.957 582.968 563.373 600.12 563.373 622.648C563.373 637.624 561.389 650.36 557.421 660.856C553.453 671.352 547.629 679.352 539.949 684.856C532.269 690.36 522.861 693.112 511.725 693.112ZM511.725 665.08C517.869 665.08 522.413 661.752 525.357 655.096C528.429 648.312 529.965 637.496 529.965 622.648C529.965 607.928 528.429 597.432 525.357 591.16C522.413 584.76 517.869 581.56 511.725 581.56C505.581 581.56 500.973 584.76 497.901 591.16C494.957 597.432 493.485 607.928 493.485 622.648C493.485 637.496 494.957 648.312 497.901 655.096C500.973 661.752 505.581 665.08 511.725 665.08Z" fill="black"/>
<path d="M647.202 692.728C641.826 692.728 637.602 691.256 634.53 688.312C631.586 685.368 630.114 681.016 630.114 675.256V668.344H591.522C585.89 668.344 581.474 667.064 578.274 664.504C575.202 661.944 573.666 658.04 573.666 652.792C573.666 649.72 574.242 646.776 575.394 643.96C576.546 641.016 578.594 637.496 581.538 633.4L628.386 565.048C630.946 561.208 633.826 558.392 637.026 556.6C640.226 554.808 644.002 553.912 648.354 553.912C653.218 553.912 657.058 555.384 659.874 558.328C662.69 561.144 664.098 565.496 664.098 571.384V641.656H668.706C673.57 641.656 677.218 642.808 679.65 645.112C682.21 647.416 683.49 650.68 683.49 654.904C683.49 659.256 682.21 662.584 679.65 664.888C677.218 667.192 673.57 668.344 668.706 668.344H664.098V675.256C664.098 680.888 662.626 685.24 659.682 688.312C656.866 691.256 652.706 692.728 647.202 692.728ZM630.114 641.656V596.344H635.49L599.394 649.912V641.656H630.114Z" fill="black"/>
<path d="M154.976 899.864C152.16 899.864 149.984 899.096 148.448 897.56C146.912 895.96 146.144 893.752 146.144 890.936V840.248C146.144 837.368 146.912 835.16 148.448 833.624C150.048 832.088 152.256 831.32 155.072 831.32H178.688C186.368 831.32 192.288 833.304 196.448 837.272C200.672 841.176 202.784 846.584 202.784 853.496C202.784 860.408 200.672 865.848 196.448 869.816C192.288 873.72 186.368 875.672 178.688 875.672H163.808V890.936C163.808 893.752 163.072 895.96 161.6 897.56C160.128 899.096 157.92 899.864 154.976 899.864ZM163.808 862.136H175.616C178.944 862.136 181.504 861.432 183.296 860.024C185.088 858.552 185.984 856.376 185.984 853.496C185.984 850.552 185.088 848.376 183.296 846.968C181.504 845.56 178.944 844.856 175.616 844.856H163.808V862.136Z" fill="black"/>
<path d="M224.221 900.056C220.573 900.056 217.341 899.384 214.525 898.04C211.773 896.696 209.597 894.872 207.997 892.568C206.461 890.2 205.693 887.512 205.693 884.504C205.693 881.048 206.589 878.328 208.381 876.344C210.173 874.36 213.053 872.952 217.021 872.12C220.989 871.224 226.269 870.776 232.861 870.776H238.141V878.84H232.861C230.365 878.84 228.285 879.032 226.621 879.416C225.021 879.736 223.837 880.28 223.069 881.048C222.301 881.752 221.917 882.68 221.917 883.832C221.917 885.304 222.429 886.52 223.453 887.48C224.541 888.44 226.077 888.92 228.061 888.92C229.661 888.92 231.069 888.568 232.285 887.864C233.565 887.16 234.589 886.2 235.357 884.984C236.125 883.704 236.509 882.232 236.509 880.568V869.432C236.509 867.128 235.901 865.496 234.685 864.536C233.533 863.576 231.517 863.096 228.637 863.096C227.101 863.096 225.373 863.288 223.453 863.672C221.533 863.992 219.389 864.6 217.021 865.496C215.293 866.136 213.821 866.232 212.605 865.784C211.389 865.336 210.429 864.568 209.725 863.48C209.085 862.392 208.765 861.208 208.765 859.928C208.829 858.648 209.245 857.432 210.013 856.28C210.845 855.128 212.093 854.232 213.757 853.592C216.829 852.44 219.645 851.672 222.205 851.288C224.829 850.904 227.229 850.712 229.405 850.712C234.653 850.712 238.973 851.48 242.365 853.016C245.821 854.488 248.381 856.792 250.045 859.928C251.773 863 252.637 866.968 252.637 871.832V891.224C252.637 894.04 251.965 896.184 250.621 897.656C249.277 899.128 247.325 899.864 244.765 899.864C242.141 899.864 240.125 899.128 238.717 897.656C237.373 896.184 236.701 894.04 236.701 891.224V888.728L237.277 890.072C236.957 892.12 236.221 893.88 235.069 895.352C233.917 896.824 232.413 897.976 230.557 898.808C228.701 899.64 226.589 900.056 224.221 900.056Z" fill="black"/>
<path d="M285.791 917.336C282.271 917.336 278.975 917.08 275.903 916.568C272.831 916.12 270.175 915.448 267.935 914.552C266.079 913.912 264.767 912.984 263.999 911.768C263.231 910.552 262.879 909.272 262.943 907.928C263.007 906.584 263.359 905.368 263.999 904.28C264.703 903.192 265.631 902.392 266.783 901.88C267.935 901.432 269.215 901.464 270.623 901.976C273.439 903.128 275.999 903.864 278.303 904.184C280.607 904.568 282.559 904.76 284.159 904.76C288.063 904.76 290.975 903.928 292.895 902.264C294.879 900.664 295.871 898.136 295.871 894.68V888.632H296.639C295.679 891.32 293.727 893.528 290.783 895.256C287.839 896.92 284.639 897.752 281.183 897.752C276.959 897.752 273.279 896.792 270.143 894.872C267.007 892.888 264.543 890.136 262.751 886.616C261.023 883.096 260.159 878.968 260.159 874.232C260.159 870.648 260.671 867.416 261.695 864.536C262.719 861.656 264.127 859.192 265.919 857.144C267.775 855.096 269.983 853.528 272.543 852.44C275.167 851.288 278.047 850.712 281.183 850.712C284.767 850.712 287.967 851.544 290.783 853.208C293.663 854.872 295.583 857.048 296.543 859.736L295.583 863.672V859.448C295.583 856.696 296.319 854.584 297.791 853.112C299.327 851.64 301.439 850.904 304.127 850.904C306.815 850.904 308.863 851.64 310.271 853.112C311.743 854.584 312.479 856.696 312.479 859.448V892.664C312.479 900.856 310.175 907 305.567 911.096C300.959 915.256 294.367 917.336 285.791 917.336ZM286.463 885.176C288.383 885.176 290.015 884.76 291.359 883.928C292.703 883.032 293.759 881.784 294.527 880.184C295.295 878.52 295.679 876.536 295.679 874.232C295.679 870.776 294.847 868.088 293.183 866.168C291.519 864.248 289.279 863.288 286.463 863.288C284.671 863.288 283.071 863.736 281.663 864.632C280.255 865.464 279.167 866.712 278.399 868.376C277.695 869.976 277.343 871.928 277.343 874.232C277.343 877.688 278.175 880.376 279.839 882.296C281.503 884.216 283.711 885.176 286.463 885.176Z" fill="black"/>
<path d="M348.189 900.056C342.429 900.056 337.437 899.064 333.213 897.08C329.053 895.032 325.853 892.152 323.613 888.44C321.373 884.728 320.253 880.344 320.253 875.288C320.253 870.424 321.309 866.168 323.421 862.52C325.597 858.808 328.541 855.928 332.253 853.88C336.029 851.768 340.317 850.712 345.117 850.712C348.637 850.712 351.837 851.288 354.717 852.44C357.597 853.528 360.061 855.16 362.109 857.336C364.157 859.448 365.693 862.008 366.717 865.016C367.805 868.024 368.349 871.384 368.349 875.096C368.349 876.376 367.997 877.336 367.293 877.976C366.589 878.552 365.469 878.84 363.933 878.84H334.557V870.776H355.869L354.333 872.024C354.333 869.656 354.013 867.736 353.373 866.264C352.733 864.792 351.773 863.672 350.493 862.904C349.277 862.136 347.741 861.752 345.885 861.752C343.901 861.752 342.173 862.232 340.701 863.192C339.293 864.088 338.205 865.432 337.437 867.224C336.669 869.016 336.285 871.256 336.285 873.944V874.808C336.285 879.352 337.277 882.616 339.261 884.6C341.309 886.52 344.445 887.48 348.669 887.48C350.077 887.48 351.677 887.32 353.469 887C355.325 886.616 357.085 886.104 358.749 885.464C360.413 884.824 361.853 884.728 363.069 885.176C364.285 885.56 365.213 886.264 365.853 887.288C366.557 888.248 366.941 889.368 367.005 890.648C367.069 891.864 366.781 893.08 366.141 894.296C365.501 895.448 364.445 896.344 362.973 896.984C360.733 898.008 358.333 898.776 355.773 899.288C353.277 899.8 350.749 900.056 348.189 900.056Z" fill="black"/>
<path d="M412.588 899.864C409.9 899.864 407.852 899.16 406.444 897.752C405.036 896.344 404.332 894.264 404.332 891.512V839.192C404.332 836.376 405.036 834.232 406.444 832.76C407.852 831.224 409.708 830.456 412.012 830.456C414.06 830.456 415.66 830.84 416.812 831.608C417.964 832.376 419.244 833.656 420.652 835.448L451.084 873.464H448.396V838.712C448.396 836.024 449.068 833.976 450.412 832.568C451.82 831.16 453.868 830.456 456.556 830.456C459.244 830.456 461.26 831.16 462.604 832.568C464.012 833.976 464.716 836.024 464.716 838.712V891.896C464.716 894.328 464.076 896.28 462.796 897.752C461.516 899.16 459.788 899.864 457.612 899.864C455.436 899.864 453.708 899.48 452.428 898.712C451.212 897.88 449.9 896.6 448.492 894.872L418.06 856.76H420.748V891.512C420.748 894.264 420.044 896.344 418.636 897.752C417.292 899.16 415.276 899.864 412.588 899.864Z" fill="black"/>
<path d="M499.834 900.056C494.586 900.056 490.01 899.064 486.106 897.08C482.202 895.096 479.162 892.248 476.986 888.536C474.81 884.824 473.722 880.44 473.722 875.384C473.722 871.544 474.33 868.12 475.546 865.112C476.762 862.04 478.522 859.448 480.826 857.336C483.13 855.16 485.882 853.528 489.082 852.44C492.282 851.288 495.866 850.712 499.834 850.712C505.082 850.712 509.658 851.704 513.562 853.688C517.466 855.672 520.474 858.52 522.586 862.232C524.762 865.88 525.85 870.264 525.85 875.384C525.85 879.16 525.242 882.584 524.026 885.656C522.81 888.728 521.05 891.352 518.746 893.528C516.506 895.64 513.754 897.272 510.49 898.424C507.29 899.512 503.738 900.056 499.834 900.056ZM499.834 887.48C501.562 887.48 503.098 887.064 504.442 886.232C505.786 885.336 506.81 884.024 507.514 882.296C508.282 880.504 508.666 878.2 508.666 875.384C508.666 871.096 507.834 868.024 506.17 866.168C504.506 864.248 502.394 863.288 499.834 863.288C498.106 863.288 496.57 863.704 495.226 864.536C493.882 865.368 492.826 866.68 492.058 868.472C491.29 870.2 490.906 872.504 490.906 875.384C490.906 879.608 491.738 882.68 493.402 884.6C495.066 886.52 497.21 887.48 499.834 887.48Z" fill="black"/>
<path d="M557.979 900.056C553.179 900.056 549.211 899.32 546.075 897.848C543.003 896.376 540.699 894.168 539.163 891.224C537.627 888.216 536.859 884.472 536.859 879.992V864.344H533.595C531.547 864.344 529.947 863.8 528.795 862.712C527.707 861.624 527.163 860.056 527.163 858.008C527.163 855.96 527.707 854.424 528.795 853.4C529.947 852.312 531.547 851.768 533.595 851.768H536.859V845.816C536.859 843 537.595 840.856 539.067 839.384C540.539 837.912 542.651 837.176 545.403 837.176C548.155 837.176 550.267 837.912 551.739 839.384C553.211 840.856 553.947 843 553.947 845.816V851.768H561.819C563.931 851.768 565.531 852.312 566.619 853.4C567.771 854.424 568.347 855.96 568.347 858.008C568.347 860.056 567.771 861.624 566.619 862.712C565.531 863.8 563.931 864.344 561.819 864.344H553.947V879.416C553.947 881.784 554.491 883.544 555.579 884.696C556.731 885.784 558.523 886.328 560.955 886.328C561.851 886.328 562.715 886.232 563.547 886.04C564.379 885.848 565.147 885.752 565.851 885.752C566.875 885.688 567.707 886.008 568.347 886.712C568.987 887.352 569.307 888.856 569.307 891.224C569.307 893.144 569.019 894.776 568.443 896.12C567.867 897.4 566.843 898.328 565.371 898.904C564.475 899.224 563.259 899.48 561.723 899.672C560.187 899.928 558.939 900.056 557.979 900.056Z" fill="black"/>
<path d="M611.635 899.864C608.819 899.864 606.611 899.096 605.011 897.56C603.475 895.96 602.707 893.688 602.707 890.744V840.44C602.707 837.496 603.475 835.256 605.011 833.72C606.611 832.12 608.915 831.32 611.923 831.32H643.891C646.195 831.32 647.923 831.896 649.075 833.048C650.227 834.2 650.803 835.864 650.803 838.04C650.803 840.28 650.227 842.008 649.075 843.224C647.923 844.376 646.195 844.952 643.891 844.952H620.371V858.584H641.779C644.019 858.584 645.715 859.16 646.867 860.312C648.083 861.464 648.691 863.128 648.691 865.304C648.691 867.544 648.083 869.24 646.867 870.392C645.715 871.544 644.019 872.12 641.779 872.12H620.371V890.744C620.371 896.824 617.459 899.864 611.635 899.864Z" fill="black"/>
<path d="M679.552 900.056C674.304 900.056 669.728 899.064 665.824 897.08C661.92 895.096 658.88 892.248 656.704 888.536C654.528 884.824 653.44 880.44 653.44 875.384C653.44 871.544 654.048 868.12 655.264 865.112C656.48 862.04 658.24 859.448 660.544 857.336C662.848 855.16 665.6 853.528 668.8 852.44C672 851.288 675.584 850.712 679.552 850.712C684.8 850.712 689.376 851.704 693.28 853.688C697.184 855.672 700.192 858.52 702.304 862.232C704.48 865.88 705.568 870.264 705.568 875.384C705.568 879.16 704.96 882.584 703.744 885.656C702.528 888.728 700.768 891.352 698.464 893.528C696.224 895.64 693.472 897.272 690.208 898.424C687.008 899.512 683.456 900.056 679.552 900.056ZM679.552 887.48C681.28 887.48 682.816 887.064 684.16 886.232C685.504 885.336 686.528 884.024 687.232 882.296C688 880.504 688.384 878.2 688.384 875.384C688.384 871.096 687.552 868.024 685.888 866.168C684.224 864.248 682.112 863.288 679.552 863.288C677.824 863.288 676.288 863.704 674.944 864.536C673.6 865.368 672.544 866.68 671.776 868.472C671.008 870.2 670.624 872.504 670.624 875.384C670.624 879.608 671.456 882.68 673.12 884.6C674.784 886.52 676.928 887.48 679.552 887.48Z" fill="black"/>
<path d="M731.062 900.056C726.966 900.056 723.606 899.32 720.982 897.848C718.358 896.312 716.374 894.04 715.03 891.032C713.75 888.024 713.11 884.216 713.11 879.608V859.448C713.11 856.632 713.846 854.52 715.318 853.112C716.79 851.64 718.902 850.904 721.654 850.904C724.406 850.904 726.518 851.64 727.99 853.112C729.462 854.52 730.198 856.632 730.198 859.448V880.088C730.198 882.392 730.678 884.12 731.638 885.272C732.598 886.424 734.102 887 736.15 887C738.454 887 740.342 886.168 741.814 884.504C743.286 882.84 744.022 880.632 744.022 877.88V859.448C744.022 856.632 744.758 854.52 746.23 853.112C747.702 851.64 749.814 850.904 752.566 850.904C755.318 850.904 757.43 851.64 758.902 853.112C760.374 854.52 761.11 856.632 761.11 859.448V891.224C761.11 896.984 758.358 899.864 752.854 899.864C750.166 899.864 748.086 899.128 746.614 897.656C745.142 896.184 744.406 894.04 744.406 891.224V885.656L745.942 890.36C744.534 893.496 742.55 895.896 739.99 897.56C737.494 899.224 734.518 900.056 731.062 900.056Z" fill="black"/>
<path d="M779.503 899.864C776.815 899.864 774.735 899.128 773.263 897.656C771.791 896.184 771.055 894.04 771.055 891.224V859.448C771.055 856.696 771.759 854.584 773.167 853.112C774.639 851.64 776.719 850.904 779.407 850.904C782.095 850.904 784.143 851.64 785.551 853.112C786.959 854.584 787.663 856.696 787.663 859.448V863.96L786.607 860.024C788.143 857.016 790.319 854.712 793.135 853.112C796.015 851.512 799.279 850.712 802.927 850.712C806.703 850.712 809.807 851.448 812.239 852.92C814.671 854.328 816.495 856.568 817.711 859.64C818.927 862.648 819.535 866.456 819.535 871.064V891.224C819.535 894.04 818.799 896.184 817.327 897.656C815.855 899.128 813.743 899.864 810.991 899.864C808.239 899.864 806.127 899.128 804.655 897.656C803.183 896.184 802.447 894.04 802.447 891.224V871.736C802.447 868.856 801.935 866.808 800.911 865.592C799.951 864.376 798.511 863.768 796.591 863.768C794.031 863.768 791.983 864.6 790.447 866.264C788.911 867.864 788.143 870.04 788.143 872.792V891.224C788.143 896.984 785.263 899.864 779.503 899.864Z" fill="black"/>
<path d="M847.705 900.056C843.673 900.056 840.089 899.064 836.953 897.08C833.881 895.096 831.449 892.248 829.657 888.536C827.929 884.824 827.065 880.44 827.065 875.384C827.065 870.2 827.929 865.784 829.657 862.136C831.449 858.488 833.881 855.672 836.953 853.688C840.089 851.704 843.673 850.712 847.705 850.712C851.225 850.712 854.393 851.544 857.209 853.208C860.025 854.872 861.913 857.016 862.873 859.64H861.817V839.096C861.817 836.28 862.553 834.136 864.025 832.664C865.497 831.192 867.609 830.456 870.361 830.456C873.049 830.456 875.129 831.192 876.601 832.664C878.137 834.136 878.905 836.28 878.905 839.096V891.224C878.905 894.04 878.169 896.184 876.697 897.656C875.289 899.128 873.209 899.864 870.457 899.864C867.769 899.864 865.689 899.128 864.217 897.656C862.745 896.184 862.009 894.04 862.009 891.224V885.752L863.065 890.456C862.169 893.336 860.281 895.672 857.401 897.464C854.585 899.192 851.353 900.056 847.705 900.056ZM853.177 887.48C854.905 887.48 856.441 887.064 857.785 886.232C859.129 885.336 860.153 884.024 860.857 882.296C861.625 880.504 862.009 878.2 862.009 875.384C862.009 871.096 861.177 868.024 859.513 866.168C857.849 864.248 855.737 863.288 853.177 863.288C851.449 863.288 849.913 863.704 848.569 864.536C847.225 865.368 846.169 866.68 845.401 868.472C844.633 870.2 844.249 872.504 844.249 875.384C844.249 879.608 845.081 882.68 846.745 884.6C848.409 886.52 850.553 887.48 853.177 887.48Z" fill="black"/>
<path d="M453.063 449.762L453.094 449.769L453.125 449.774C474.949 453.664 492.254 455.723 509.196 455.939L509.196 455.972L511.705 455.966C529.454 455.93 547.377 453.864 570.275 449.783L570.306 449.777L570.337 449.771C597.523 444.217 620.4 435.22 639.984 422.384L640 422.374L640.014 422.364C655.837 411.663 666.657 402.198 674.29 390.839C681.92 379.486 686.232 366.443 689.401 348.818C690.539 344.49 691.336 337.199 691.885 327.955C692.443 318.569 692.754 306.968 692.859 293.998C693.07 268.053 692.457 236.539 691.329 206.119C690.201 175.702 688.555 146.343 686.697 124.709C685.769 113.903 684.784 104.972 683.775 98.7871C683.274 95.7152 682.75 93.2125 682.192 91.4719C681.923 90.6311 681.587 89.778 681.136 89.1098C680.844 88.6768 679.854 87.4062 678.242 87.5382C676.207 87.3968 673.682 87.7794 670.837 88.5007C667.783 89.2749 664.147 90.4965 659.988 92.1232C651.667 95.378 641.086 100.322 628.597 106.771C603.777 119.588 571.256 138.434 533.65 162.03C516.698 159.81 506.709 159.804 489.75 162.022C452.144 138.425 419.623 119.579 394.804 106.762C382.314 100.313 371.733 95.3691 363.413 92.1144C359.254 90.4876 355.617 89.2661 352.563 88.4919C349.718 87.7705 347.193 87.3879 345.158 87.5293C343.546 87.3974 342.556 88.6679 342.264 89.1009C341.813 89.7691 341.478 90.6222 341.208 91.4631C340.65 93.2037 340.127 95.7064 339.625 98.7782C338.616 104.963 337.631 113.894 336.703 124.7C334.845 146.334 333.2 175.693 332.071 206.11C330.943 236.53 330.331 268.044 330.541 293.989C330.646 306.959 330.957 318.56 331.515 327.946C332.064 337.19 332.861 344.481 333.999 348.809C337.168 366.434 341.48 379.477 349.11 390.83C356.744 402.189 367.563 411.654 383.386 422.355L383.401 422.365L383.416 422.375C403 435.212 425.877 444.208 453.063 449.762Z" fill="white" stroke="black" stroke-width="5"/>
<g filter="url(#filter0_d_113_122)">
<path d="M515.221 370.492C517.658 370.778 520.161 371.329 522.358 372.055C528.128 373.931 526.75 376.614 523.59 378.699C522.436 379.46 521.045 380.147 519.668 380.827C517.164 382.063 514.708 383.276 513.818 384.869C513.114 386.147 513.481 392.131 513.688 395.516C513.731 396.211 513.767 396.796 513.785 397.208C514.077 402.97 520.573 407.016 526.667 407.122C528.532 407.144 529.653 405.843 530.721 404.603C531.686 403.482 532.608 402.411 533.999 402.411C535.392 402.411 535.783 404.216 534.826 406.242C534.217 407.518 532.433 409.147 530.692 410.028C527.95 411.393 525.122 411.327 521.618 409.786C518.964 408.641 516.375 406.748 513.785 404.106C511.969 401.658 510.954 401.636 509.137 404.107C506.548 406.748 503.958 408.642 501.304 409.786C497.801 411.327 494.972 411.393 492.23 410.028C490.49 409.148 488.705 407.519 488.096 406.242C487.139 404.217 487.53 402.412 488.923 402.412C490.314 402.412 491.236 403.483 492.202 404.604C493.27 405.844 494.39 407.145 496.256 407.123C502.349 407.016 508.845 402.971 509.137 397.209C509.155 396.796 509.191 396.211 509.234 395.516C509.442 392.132 509.809 386.148 509.105 384.869C508.215 383.276 505.758 382.064 503.254 380.827C501.877 380.148 500.486 379.461 499.333 378.7C496.173 376.615 494.794 373.932 500.564 372.056C502.762 371.329 505.264 370.779 507.701 370.493C510.147 370.231 512.777 370.231 515.221 370.492Z" fill="black"/>
<path d="M358 336.238C358 371.715 385.385 400.475 419.166 400.475C452.947 400.475 480.331 371.715 480.331 336.238C480.331 300.76 452.947 272 419.166 272C385.385 272 358 300.76 358 336.238Z" fill="black"/>
<path d="M411.703 411.114L411.71 411.122L411.717 411.129C413.541 412.962 416.074 413.815 419.166 413.815C422.372 413.815 424.957 412.972 426.728 411.114L426.735 411.106L426.742 411.099C428.476 409.204 429.284 406.645 429.284 403.549V357.625H443.845C446.454 357.625 448.599 356.95 450.104 355.438L449.395 354.733L450.104 355.438C451.66 353.874 452.377 351.732 452.377 349.153C452.377 346.526 451.668 344.368 450.095 342.86C448.591 341.354 446.449 340.681 443.845 340.681H394.487C391.874 340.681 389.71 341.358 388.147 342.851L388.137 342.86L388.128 342.869C386.625 344.38 385.954 346.534 385.954 349.153C385.954 351.719 386.631 353.854 388.11 355.419L388.128 355.438L388.147 355.456C389.71 356.949 391.874 357.625 394.487 357.625H409.047V403.549C409.047 406.656 409.895 409.221 411.703 411.114Z" fill="white" stroke="black" stroke-width="2"/>
<path d="M543.669 336.238C543.669 371.715 571.054 400.475 604.834 400.475C638.615 400.475 666 371.715 666 336.238C666 300.76 638.615 272 604.834 272C571.054 272 543.669 300.76 543.669 336.238Z" fill="black"/>
<path d="M597.372 411.114L597.379 411.122L597.386 411.129C599.21 412.962 601.742 413.815 604.834 413.815C608.04 413.815 610.626 412.972 612.397 411.114L612.404 411.106L612.411 411.099C614.145 409.204 614.953 406.645 614.953 403.549V357.625H629.513C632.123 357.625 634.268 356.95 635.773 355.438L635.064 354.733L635.773 355.438C637.328 353.874 638.046 351.732 638.046 349.153C638.046 346.526 637.337 344.368 635.763 342.86C634.26 341.354 632.117 340.681 629.513 340.681H580.155C577.542 340.681 575.379 341.358 573.815 342.851L573.806 342.86L573.797 342.869C572.294 344.38 571.623 346.534 571.623 349.153C571.623 351.719 572.299 353.854 573.779 355.419L573.797 355.438L573.815 355.456C575.379 356.949 577.542 357.625 580.155 357.625H594.716V403.549C594.716 406.656 595.563 409.221 597.372 411.114Z" fill="white" stroke="black" stroke-width="2"/>
</g>
<path d="M346.178 98.0222C345.894 98.4997 345.149 102.428 344.909 104.707C344.514 108.245 344.493 121.983 344.887 125.759C346.244 138.716 349.309 155.037 352.373 165.476C352.724 166.67 353.358 168.971 353.796 170.577C356.905 182.21 362.968 197.945 368.594 208.992C370.455 212.638 373.06 217.239 373.279 217.239C373.498 217.239 375.249 216.045 378.752 213.528C391.514 204.369 399.614 199.117 410.931 192.671C418.506 188.352 427.284 184.206 438.186 179.801C449.832 175.091 465.505 170.555 476.101 168.819C479.691 168.233 479.734 168.493 475.531 165.52C473.955 164.413 470.453 161.895 467.738 159.92C459.113 153.67 452.218 149.047 443.177 143.491C439.63 141.321 427.503 134.462 421.111 131.033C415.288 127.886 396.199 118.402 390.573 115.841C388.055 114.69 383.809 112.759 381.16 111.543C376.015 109.2 372.579 107.724 368.025 105.901C366.471 105.271 363.8 104.186 362.115 103.47C358.174 101.799 351.257 99.1725 348.915 98.4346C347.054 97.8486 346.331 97.7401 346.178 98.0222Z" fill="black"/>
<path d="M677.3 98.0223C677.584 98.4997 678.328 102.428 678.569 104.707C678.963 108.245 678.985 121.983 678.591 125.759C677.234 138.716 674.169 155.037 671.104 165.476C670.754 166.67 670.119 168.971 669.682 170.577C666.573 182.21 660.509 197.945 654.883 208.992C653.023 212.638 650.418 217.239 650.199 217.239C649.98 217.239 648.229 216.045 644.726 213.528C631.964 204.369 623.864 199.117 612.546 192.671C604.972 188.352 596.194 184.206 585.292 179.801C573.646 175.091 557.972 170.555 547.377 168.819C543.787 168.233 543.743 168.493 547.946 165.52C549.523 164.413 553.025 161.895 555.74 159.92C564.365 153.67 571.26 149.047 580.301 143.491C583.847 141.321 595.975 134.462 602.367 131.033C608.19 127.886 627.279 118.402 632.905 115.841C635.422 114.69 639.669 112.759 642.318 111.543C647.462 109.2 650.899 107.724 655.453 105.901C657.007 105.271 659.677 104.186 661.363 103.47C665.303 101.799 672.221 99.1725 674.563 98.4346C676.424 97.8486 677.146 97.7401 677.3 98.0223Z" fill="black"/>
<g filter="url(#filter1_d_113_122)">
<path d="M612.341 192.912L612 251.813" stroke="black" stroke-width="3" stroke-linecap="round"/>
<path d="M620.354 187L619.959 245.901" stroke="black" stroke-width="3" stroke-linecap="round"/>
<path d="M628.53 192.003L628.135 250.904" stroke="black" stroke-width="3" stroke-linecap="round"/>
<path d="M635.387 201.099L634.992 260" stroke="black" stroke-width="3" stroke-linecap="round"/>
<path d="M642.244 192.003L641.84 250.904" stroke="black" stroke-width="3" stroke-linecap="round"/>
<path d="M649.294 187L648.953 245.901" stroke="black" stroke-width="3" stroke-linecap="round"/>
</g>
</g>
<defs>
<filter id="filter0_d_113_122" x="354" y="272" width="316" height="150.815" filterUnits="userSpaceOnUse" color-interpolation-filters="sRGB">
<feFlood flood-opacity="0" result="BackgroundImageFix"/>
<feColorMatrix in="SourceAlpha" type="matrix" values="0 0 0 0 0 0 0 0 0 0 0 0 0 0 0 0 0 0 127 0" result="hardAlpha"/>
<feOffset dy="4"/>
<feGaussianBlur stdDeviation="2"/>
<feComposite in2="hardAlpha" operator="out"/>
<feColorMatrix type="matrix" values="0 0 0 0 0 0 0 0 0 0 0 0 0 0 0 0 0 0 0.25 0"/>
<feBlend mode="normal" in2="BackgroundImageFix" result="effect1_dropShadow_113_122"/>
<feBlend mode="normal" in="SourceGraphic" in2="effect1_dropShadow_113_122" result="shape"/>
</filter>
<filter id="filter1_d_113_122" x="606.5" y="185.5" width="48.2939" height="84" filterUnits="userSpaceOnUse" color-interpolation-filters="sRGB">
<feFlood flood-opacity="0" result="BackgroundImageFix"/>
<feColorMatrix in="SourceAlpha" type="matrix" values="0 0 0 0 0 0 0 0 0 0 0 0 0 0 0 0 0 0 127 0" result="hardAlpha"/>
<feOffset dy="4"/>
<feGaussianBlur stdDeviation="2"/>
<feComposite in2="hardAlpha" operator="out"/>
<feColorMatrix type="matrix" values="0 0 0 0 0 0 0 0 0 0 0 0 0 0 0 0 0 0 0.25 0"/>
<feBlend mode="normal" in2="BackgroundImageFix" result="effect1_dropShadow_113_122"/>
<feBlend mode="normal" in="SourceGraphic" in2="effect1_dropShadow_113_122" result="shape"/>
</filter>
<clipPath id="clip0_113_122">
<rect width="1024" height="1024" fill="white"/>
</clipPath>
</defs>
</svg>
