<svg width="1024" height="1024" viewBox="0 0 1024 1024" fill="none" xmlns="http://www.w3.org/2000/svg">
<g clip-path="url(#clip0_104_2)">
<rect width="1024" height="1024" rx="64" fill="white"/>
<path d="M517.401 591.385C524.134 592.174 531.048 593.69 537.12 595.692C553.061 600.861 549.253 608.254 540.522 613.999C537.335 616.096 533.491 617.988 529.687 619.861C522.768 623.268 515.981 626.609 513.522 630.999C511.577 634.521 512.591 651.01 513.165 660.335C513.282 662.25 513.382 663.862 513.433 664.999C514.24 680.875 532.187 692.022 549.023 692.315C554.178 692.376 557.274 688.792 560.225 685.374C562.891 682.286 565.44 679.335 569.284 679.335C573.131 679.335 574.213 684.309 571.568 689.889C569.885 693.407 564.955 697.895 560.145 700.322C552.57 704.082 544.755 703.9 535.076 699.654C527.741 696.5 520.587 691.284 513.433 684.005C508.413 677.259 505.611 677.199 500.589 684.007C493.435 691.285 486.281 696.502 478.946 699.656C469.267 703.901 461.451 704.083 453.876 700.323C449.067 697.897 444.137 693.408 442.454 689.89C439.809 684.31 440.891 679.336 444.738 679.336C448.582 679.336 451.13 682.287 453.797 685.376C456.748 688.793 459.843 692.378 464.999 692.316C481.835 692.023 499.782 680.876 500.589 665C500.64 663.864 500.74 662.251 500.857 660.336C501.431 651.011 502.445 634.523 500.5 631C498.041 626.611 491.254 623.269 484.334 619.862C480.531 617.99 476.687 616.097 473.5 614C464.769 608.255 460.961 600.863 476.902 595.693C482.974 593.691 489.888 592.175 496.621 591.386C503.38 590.666 510.648 590.665 517.401 591.385Z" fill="black"/>
<path d="M596 497C596 594.754 671.664 674 765 674C858.336 674 934 594.754 934 497C934 399.246 858.336 320 765 320C671.664 320 596 399.246 596 497Z" fill="black"/>
<path d="M790.5 431.549C763.869 443.319 712.908 468.92 696.083 479.234C659.889 501.074 616.191 532.622 616.191 536.868C616.191 539.174 626.964 548.274 636.527 553.977C668.726 573.269 710.003 575.332 744.017 559.437C779.242 542.814 800.789 515.271 810.715 474.138C813.014 464.674 813.862 433.369 811.925 426.696C810.836 422.57 811.32 422.449 790.5 431.549Z" fill="white"/>
<path d="M421 497C421 594.754 345.336 674 252 674C158.664 674 83 594.754 83 497C83 399.246 158.664 320 252 320C345.336 320 421 399.246 421 497Z" fill="black"/>
<path d="M226.5 431.549C253.131 443.319 304.092 468.92 320.917 479.234C357.111 501.074 400.809 532.622 400.809 536.868C400.809 539.174 390.036 548.274 380.473 553.977C348.274 573.269 306.997 575.332 272.983 559.437C237.758 542.814 216.211 515.271 206.285 474.138C203.986 464.674 203.138 433.369 205.075 426.696C206.164 422.57 205.68 422.449 226.5 431.549Z" fill="white"/>
</g>
<defs>
<clipPath id="clip0_104_2">
<rect width="1024" height="1024" fill="white"/>
</clipPath>
</defs>
</svg>
